<?xml version="1.0" standalone="no"?>
<!DOCTYPE svg PUBLIC "-//W3C//DTD SVG 20010904//EN"
 "http://www.w3.org/TR/2001/REC-SVG-20010904/DTD/svg10.dtd">
<svg version="1.0" xmlns="http://www.w3.org/2000/svg"
 width="399.000000pt" height="399.000000pt" viewBox="0 0 399.000000 399.000000"
 preserveAspectRatio="xMidYMid meet">
<metadata>
Created by potrace 1.11, written by Peter Selinger 2001-2013
</metadata>
<g transform="translate(0.000000,399.000000) scale(0.100000,-0.100000)"
fill="#000000" stroke="none">
<path d="M3695 3871 c-132 -26 -257 -51 -277 -55 l-38 -7 0 -240 0 -239 23 5
c30 6 551 85 566 85 8 0 11 70 11 250 l0 250 -22 -1 c-13 0 -131 -22 -263 -48z"/>
<path d="M1630 3334 c-69 -13 -178 -33 -242 -45 l-118 -21 0 -159 c0 -156 0
-159 -22 -164 -13 -3 -265 -41 -561 -84 -613 -90 -597 -86 -643 -184 -21 -47
-24 -65 -24 -189 l0 -138 39 0 c21 0 53 3 70 6 l31 7 0 123 c0 120 1 125 23
134 12 5 381 55 820 112 l797 103 0 262 0 263 -22 -1 c-13 -1 -79 -12 -148
-25z"/>
<path d="M2155 3311 l-210 -37 -3 -210 -2 -210 172 22 c95 13 201 26 236 30
l62 7 0 218 0 219 -22 -1 c-13 0 -117 -18 -233 -38z"/>
<path d="M3073 3152 l-523 -75 0 -450 0 -449 73 6 c86 8 991 66 1018 66 18 0
19 19 19 490 l0 490 -32 -1 c-18 -1 -268 -35 -555 -77z"/>
<path d="M2070 2750 c-168 -21 -306 -39 -307 -39 -2 -1 -3 -131 -3 -291 0
-159 1 -290 3 -290 1 0 137 9 302 20 165 11 310 20 323 20 l22 0 0 310 c0 289
-1 310 -17 309 -10 -1 -155 -18 -323 -39z"/>
<path d="M557 2305 c-504 -47 -500 -46 -537 -108 -19 -30 -20 -52 -19 -462 1
-236 4 -653 8 -925 6 -471 7 -497 26 -529 41 -69 35 -67 526 -137 250 -35 477
-64 506 -64 63 0 107 32 123 88 8 26 9 344 3 1059 -8 1010 -8 1022 -29 1049
-29 40 -64 62 -104 68 -19 2 -246 -15 -503 -39z m516 -792 c4 -318 7 -707 7
-865 l0 -288 -27 5 c-16 3 -233 28 -483 56 -250 28 -457 53 -460 56 -6 6 -22
1545 -16 1551 5 5 804 59 902 61 l71 1 6 -577z m-468 -1178 c51 -50 15 -130
-48 -106 -64 25 -61 131 4 131 11 0 31 -11 44 -25z"/>
<path d="M2518 2052 l-288 -15 0 -206 c0 -113 3 -257 7 -318 l6 -113 249 0
248 0 0 -125 c0 -108 -2 -125 -17 -133 -11 -6 -184 -4 -433 4 -228 7 -549 16
-712 20 l-298 7 0 -85 0 -85 31 -7 c17 -3 53 -6 78 -6 55 0 71 -12 71 -55 0
-47 -15 -55 -102 -55 l-78 0 0 -80 c0 -72 2 -80 19 -80 11 0 325 -22 698 -50
373 -27 710 -50 748 -50 93 0 162 31 202 91 l28 43 3 658 2 658 -87 -2 c-49 0
-217 -8 -375 -16z"/>
<path d="M1282 453 l3 -147 320 -38 c394 -45 389 -45 422 -12 21 21 24 32 20
62 -9 51 -33 70 -131 102 -94 31 -172 76 -209 120 -23 27 -28 28 -208 44 -101
9 -192 16 -202 16 -16 0 -17 -12 -15 -147z"/>
</g>
</svg>
